<?xml version="1.0" encoding="utf-8"?>
<!-- Generator: Adobe Illustrator 21.0.0, SVG Export Plug-In . SVG Version: 6.00 Build 0)  -->
<svg version="1.1" id="Layer_1" xmlns="http://www.w3.org/2000/svg" xmlns:xlink="http://www.w3.org/1999/xlink" x="0px" y="0px"
	 viewBox="0 0 158 36" style="enable-background:new 0 0 158 36;" xml:space="preserve">
<style type="text/css">
	.st0{opacity:0.7;}
	.st1{fill:#93959C;}
</style>
<g class="st0">
	<path class="st1" d="M24.7,16c-0.5,0.5-0.8,1-1,1.6c-0.2,0.6-0.3,1.3-0.2,1.9l0,0c0.1,0.8,0,1.5-0.3,2.2c-0.3,0.7-0.7,1.4-1.2,1.9
		c-0.5,0.5-1.2,0.9-1.9,1.2s-1.5,0.4-2.2,0.3l0,0c-0.9-0.1-1.8,0.1-2.6,0.6c-0.8,0.5-1.4,1.1-1.8,2c-0.4,0.8-0.5,1.7-0.4,2.6
		c0.2,0.9,0.6,1.7,1.2,2.4c0.6,0.6,1.5,1.1,2.4,1.2c0.9,0.2,1.8,0,2.6-0.4s1.5-1,2-1.8c0.5-0.8,0.6-1.7,0.6-2.6l0,0
		c-0.1-0.8,0-1.5,0.3-2.2c0.3-0.7,0.7-1.4,1.2-1.9c0.5-0.5,1.2-0.9,1.9-1.2c0.7-0.3,1.5-0.4,2.2-0.3l0,0c0.7,0.1,1.5-0.1,2.2-0.4
		c0.7-0.3,1.3-0.8,1.7-1.3s0.7-1.3,0.9-2c0.1-0.7,0-1.5-0.2-2.2c-0.3-0.7-0.7-1.3-1.2-1.8c-0.6-0.5-1.2-0.8-2-1s-1.5-0.1-2.2,0.1
		C25.9,15.1,25.2,15.5,24.7,16L24.7,16z"/>
	<path class="st1" d="M15.9,22.4L15.9,22.4c0.6,0,1.3,0,1.9-0.3c0.6-0.2,1.2-0.6,1.6-1c0.5-0.5,0.8-1,1-1.6c0.2-0.6,0.3-1.3,0.2-1.9
		l0,0c-0.1-0.8,0-1.5,0.3-2.2c0.3-0.7,0.7-1.4,1.2-1.9c0.5-0.5,1.2-0.9,1.9-1.2c0.7-0.3,1.5-0.4,2.2-0.3l0,0
		c0.9,0.1,1.8-0.1,2.6-0.6c0.8-0.5,1.4-1.1,1.8-2C31,8.6,31.2,7.7,31,6.8c-0.2-0.9-0.6-1.7-1.2-2.4c-0.6-0.6-1.5-1.1-2.4-1.2
		c-0.9-0.2-1.8,0-2.6,0.4c-0.8,0.4-1.5,1-2,1.8c-0.5,0.8-0.6,1.7-0.6,2.6l0,0c0.1,0.8,0,1.5-0.3,2.2c-0.3,0.7-0.7,1.4-1.2,1.9
		s-1.2,0.9-1.9,1.2c-0.7,0.3-1.5,0.4-2.2,0.3l0,0c-0.6-0.1-1.3,0-1.9,0.2c-0.6,0.2-1.2,0.6-1.6,1c-0.5,0.5-0.8,1-1,1.6
		c-0.2,0.6-0.3,1.3-0.2,1.9l0,0c0.1,0.8,0,1.5-0.3,2.2c-0.3,0.7-0.7,1.4-1.2,1.9c-0.5,0.5-1.2,0.9-1.9,1.2C7.7,23.9,7,24,6.2,24l0,0
		c-0.9-0.1-1.8,0.1-2.6,0.6c-0.8,0.5-1.4,1.1-1.8,2c-0.4,0.8-0.5,1.7-0.4,2.6C1.6,30,2,30.9,2.7,31.5s1.5,1.1,2.4,1.2
		c0.9,0.2,1.8,0,2.6-0.4c0.8-0.4,1.5-1,2-1.8c0.5-0.8,0.6-1.7,0.6-2.6l0,0c-0.1-0.8,0-1.5,0.3-2.2c0.3-0.7,0.7-1.4,1.2-1.9
		c0.5-0.5,1.2-0.9,1.9-1.2C14.3,22.4,15.1,22.3,15.9,22.4L15.9,22.4z"/>
	<path class="st1" d="M7.8,20c0.5-0.5,0.8-1,1-1.6c0.2-0.6,0.3-1.3,0.2-1.9l0,0c-0.1-0.8,0-1.5,0.3-2.2c0.3-0.7,0.7-1.4,1.2-1.9
		c0.5-0.5,1.2-0.9,1.9-1.2c0.7-0.3,1.5-0.4,2.2-0.3l0,0c0.9,0.1,1.8-0.1,2.6-0.6c0.8-0.5,1.4-1.1,1.8-2c0.4-0.8,0.5-1.7,0.4-2.6
		s-0.6-1.7-1.2-2.4c-0.6-0.6-1.5-1.1-2.4-1.2s-1.8,0-2.6,0.4c-0.8,0.4-1.5,1-2,1.8c-0.5,0.8-0.6,1.7-0.6,2.6l0,0
		c0.1,0.8,0,1.5-0.3,2.2s-0.7,1.4-1.2,1.9c-0.5,0.5-1.2,0.9-1.9,1.2s-1.5,0.4-2.2,0.3l0,0c-0.7-0.1-1.5,0.1-2.2,0.4
		c-0.7,0.3-1.3,0.8-1.7,1.3c-0.5,0.6-0.7,1.3-0.9,2c-0.1,0.7,0,1.5,0.2,2.2c0.3,0.7,0.7,1.3,1.2,1.8c0.6,0.5,1.2,0.8,2,1
		c0.7,0.2,1.5,0.1,2.2-0.1C6.6,20.9,7.3,20.5,7.8,20L7.8,20z"/>
</g>
<g>
	<path class="st1" d="M48.5,20.5l-1,3.5h-3.2l4.1-13.5h4L56.6,24h-3.3l-1-3.5H48.5z M51.9,18.3L51,15.4c-0.2-0.8-0.5-1.8-0.7-2.6h0
		c-0.2,0.8-0.4,1.8-0.6,2.6l-0.8,2.9H51.9z"/>
	<path class="st1" d="M58.2,9.8h3V24h-3V9.8z"/>
	<path class="st1" d="M66.9,11.5c0,0.8-0.6,1.5-1.6,1.5c-1,0-1.6-0.7-1.6-1.5c0-0.9,0.6-1.5,1.6-1.5C66.2,10,66.8,10.6,66.9,11.5z
		 M63.7,24v-9.8h3V24H63.7z"/>
	<path class="st1" d="M73.5,21.9c0.8,0.5,1.9,0.9,3.1,0.9c1.8,0,2.8-0.9,2.8-2.3c0-1.3-0.7-2-2.5-2.7c-2.2-0.8-3.6-1.9-3.6-3.8
		c0-2.1,1.7-3.7,4.4-3.7c1.4,0,2.4,0.3,3,0.7l-0.5,1.4c-0.4-0.2-1.3-0.6-2.6-0.6c-1.8,0-2.5,1.1-2.5,2c0,1.3,0.8,1.9,2.7,2.6
		c2.3,0.9,3.4,2,3.4,4c0,2.1-1.5,3.9-4.7,3.9c-1.3,0-2.7-0.4-3.4-0.9L73.5,21.9z"/>
	<path class="st1" d="M83.5,17.5c0-1.2,0-2.2-0.1-3.2H85l0.1,1.7h0c0.7-1.2,1.9-1.9,3.4-1.9c2.3,0,4.1,2,4.1,4.9
		c0,3.5-2.1,5.2-4.4,5.2c-1.3,0-2.4-0.6-3-1.5h0V28h-1.7V17.5z M85.3,20.1c0,0.3,0,0.5,0.1,0.7c0.3,1.2,1.4,2.1,2.6,2.1
		c1.9,0,2.9-1.5,2.9-3.7c0-1.9-1-3.6-2.9-3.6c-1.2,0-2.3,0.9-2.7,2.2c-0.1,0.2-0.1,0.5-0.1,0.7V20.1z"/>
	<path class="st1" d="M100.3,24l-0.1-1.2h-0.1c-0.5,0.8-1.6,1.4-3,1.4c-2,0-3-1.4-3-2.8c0-2.3,2.1-3.6,5.8-3.6v-0.2
		c0-0.8-0.2-2.2-2.2-2.2c-0.9,0-1.8,0.3-2.5,0.7L94.9,15c0.8-0.5,2-0.9,3.2-0.9c3,0,3.7,2,3.7,4v3.6c0,0.8,0,1.7,0.2,2.3H100.3z
		 M100,19.1c-1.9,0-4.1,0.3-4.1,2.2c0,1.1,0.8,1.7,1.7,1.7c1.3,0,2.1-0.8,2.3-1.6c0.1-0.2,0.1-0.4,0.1-0.6V19.1z"/>
	<path class="st1" d="M111.5,23.6c-0.5,0.2-1.5,0.6-2.8,0.6c-2.9,0-4.8-2-4.8-4.9c0-3,2-5.1,5.2-5.1c1,0,2,0.3,2.4,0.5l-0.4,1.4
		c-0.4-0.2-1.1-0.5-2-0.5c-2.2,0-3.4,1.6-3.4,3.7c0,2.2,1.4,3.6,3.4,3.6c1,0,1.7-0.3,2.2-0.5L111.5,23.6z"/>
	<path class="st1" d="M114.4,19.5c0,2.4,1.6,3.4,3.3,3.4c1.3,0,2-0.2,2.7-0.5l0.3,1.3c-0.6,0.3-1.7,0.6-3.2,0.6c-3,0-4.8-2-4.8-4.9
		c0-2.9,1.7-5.2,4.5-5.2c3.2,0,4,2.8,4,4.6c0,0.4,0,0.6-0.1,0.8H114.4z M119.5,18.2c0-1.1-0.5-2.9-2.4-2.9c-1.8,0-2.6,1.6-2.7,2.9
		H119.5z"/>
</g>
</svg>
