<?xml version="1.0" encoding="utf-8"?>
<!-- Generator: Adobe Illustrator 21.0.0, SVG Export Plug-In . SVG Version: 6.00 Build 0)  -->
<svg version="1.1" id="Layer_1" xmlns="http://www.w3.org/2000/svg" xmlns:xlink="http://www.w3.org/1999/xlink" x="0px" y="0px"
	 viewBox="0 0 154 36" style="enable-background:new 0 0 154 36;" xml:space="preserve">
<style type="text/css">
	.st0{opacity:0.7;}
	.st1{fill:#93959C;}
</style>
<g class="st0">
	<path class="st1" d="M36.5,12.1c0-2.4-0.7-4.7-2.1-6.7c-1.3-2-3.3-3.5-5.5-4.4c-2.2-0.9-4.7-1-7-0.5c-2.3,0.5-4.4,1.8-6,3.5H1v31.6
		h31.6V21c1.2-1.1,2.2-2.5,2.9-4C36.2,15.4,36.5,13.8,36.5,12.1L36.5,12.1z M30.4,12.1c0,1.1-0.3,2.3-1,3.2c-0.6,1-1.5,1.7-2.6,2.1
		c-1.1,0.4-2.2,0.6-3.3,0.3c-1.1-0.2-2.2-0.8-3-1.6c-0.8-0.8-1.4-1.8-1.6-3c-0.2-1.1-0.1-2.3,0.3-3.3c0.4-1.1,1.2-2,2.1-2.6
		c1-0.6,2.1-1,3.2-1c1.5,0,3,0.6,4.1,1.7C29.8,9.1,30.4,10.6,30.4,12.1L30.4,12.1z M26.5,29.6H7V10.2H13c-0.1,0.6-0.2,1.3-0.2,1.9
		c0,3.1,1.3,6.2,3.5,8.4s5.2,3.5,8.4,3.5c0.6,0,1.2-0.1,1.8-0.2V29.6z"/>
</g>
<g>
	<path class="st1" d="M55.2,16.9c-0.1,0.1-0.3,0.3-0.5,0.4s-0.4,0.2-0.7,0.2s-0.5,0.1-0.7,0.1h-5.2L46.9,23h-2.3l2.6-12h7.5
		c0.2,0,0.4,0,0.7,0.1s0.4,0.1,0.6,0.2s0.3,0.2,0.4,0.4s0.1,0.3,0.1,0.5l-0.9,4.2C55.4,16.6,55.3,16.7,55.2,16.9z M54.1,12.3
		c0-0.1,0-0.1-0.2-0.1h-4.7l-0.9,4.2H53c0.1,0,0.2,0,0.2-0.1L54.1,12.3z"/>
	<path class="st1" d="M56.7,23c-0.5,0-0.9-0.1-1.2-0.3c-0.4-0.2-0.5-0.5-0.4-0.9l0.8-3.6c0.1-0.4,0.3-0.6,0.8-0.9
		c0.4-0.2,0.9-0.3,1.3-0.3h3.8l0.2-0.9c0-0.1,0-0.2-0.1-0.2h-5.1l0.2-1.2h5.6c0.2,0,0.4,0,0.7,0.1s0.4,0.1,0.6,0.2s0.3,0.2,0.4,0.4
		s0.1,0.3,0.1,0.5L62.7,23H56.7z M61.5,18.2h-3.2c-0.1,0-0.2,0.1-0.2,0.2l-0.7,3.3c0,0.1,0,0.1,0.1,0.1h3.2L61.5,18.2z"/>
	<path class="st1" d="M69.7,23l1.5-6.9c0-0.1,0-0.2-0.1-0.2h-3c-0.1,0-0.2,0.1-0.2,0.2L66.3,23h-2.3l1.5-7.1
		c0.1-0.3,0.3-0.6,0.8-0.9c0.4-0.2,0.9-0.3,1.3-0.3h4.1c0.2,0,0.4,0,0.6,0.1s0.4,0.1,0.6,0.2s0.3,0.2,0.4,0.4s0.1,0.3,0.1,0.5
		L71.9,23H69.7z"/>
	<path class="st1" d="M74.8,23c-0.5,0-0.9-0.1-1.2-0.3c-0.4-0.2-0.5-0.5-0.4-0.9l1.2-5.9c0.1-0.3,0.3-0.6,0.8-0.9
		c0.4-0.2,0.9-0.3,1.3-0.3h3.8l0.8-3.8h2.3l-2.6,12H74.8z M80.1,15.9h-3.2c-0.1,0-0.2,0.1-0.2,0.2l-1.2,5.5c0,0.1,0,0.1,0.1,0.1h3.2
		L80.1,15.9z"/>
	<path class="st1" d="M84,23c-0.5,0-0.9-0.1-1.2-0.3c-0.4-0.2-0.5-0.5-0.4-0.9l0.8-3.6c0.1-0.4,0.3-0.6,0.8-0.9
		c0.4-0.2,0.9-0.3,1.3-0.3H89l0.2-0.9c0-0.1,0-0.2-0.1-0.2H84l0.2-1.2h5.6c0.2,0,0.4,0,0.7,0.1s0.4,0.1,0.6,0.2s0.3,0.2,0.4,0.4
		s0.1,0.3,0.1,0.5L90,23H84z M88.8,18.2h-3.2c-0.1,0-0.2,0.1-0.2,0.2l-0.7,3.3c0,0.1,0,0.1,0.1,0.1H88L88.8,18.2z"/>
	<path class="st1" d="M108,22.3c-0.1,0.1-0.3,0.3-0.5,0.4c-0.2,0.1-0.4,0.2-0.7,0.2c-0.2,0.1-0.5,0.1-0.7,0.1h-7.5l0.3-1.2h6.9
		c0.1,0,0.2,0,0.2-0.1l0.8-3.9c0-0.1,0-0.1-0.2-0.1h-5.1c-0.5,0-0.9-0.1-1.2-0.3c-0.4-0.2-0.5-0.5-0.4-0.9l0.9-4.2
		c0.1-0.4,0.3-0.6,0.8-0.9c0.4-0.2,0.9-0.3,1.3-0.3h7.5l-0.3,1.2h-6.9c-0.1,0-0.2,0-0.2,0.1l-0.8,3.9c0,0.1,0,0.1,0.1,0.1h5.1
		c0.2,0,0.5,0,0.7,0.1s0.4,0.1,0.6,0.2s0.3,0.2,0.4,0.4c0.1,0.1,0.1,0.3,0.1,0.5l-0.9,4.2C108.3,22,108.2,22.1,108,22.3z"/>
	<path class="st1" d="M113.9,26l0.6-3h-3.8c-0.5,0-0.9-0.1-1.2-0.3c-0.4-0.2-0.5-0.5-0.4-0.9l1.2-5.9c0.1-0.3,0.3-0.6,0.8-0.9
		c0.4-0.2,0.9-0.3,1.3-0.3h6L116.1,26H113.9z M116,15.9h-3.2c-0.1,0-0.2,0.1-0.2,0.2l-1.2,5.5c0,0.1,0,0.1,0.1,0.1h3.2L116,15.9z"/>
	<path class="st1" d="M126,22.3c-0.1,0.1-0.3,0.3-0.5,0.4s-0.4,0.2-0.7,0.2c-0.2,0.1-0.5,0.1-0.7,0.1H120c-0.5,0-0.9-0.1-1.2-0.3
		c-0.4-0.2-0.5-0.5-0.4-0.9l1.5-7h2.3l-1.5,6.9c0,0.1,0,0.1,0.1,0.1h3c0.1,0,0.2,0,0.2-0.1l1.5-6.9h2.3l-1.5,7
		C126.2,22,126.1,22.1,126,22.3z"/>
	<path class="st1" d="M129.2,23c-0.5,0-0.9-0.1-1.2-0.3c-0.4-0.2-0.5-0.5-0.4-0.9l0.8-3.6c0.1-0.4,0.3-0.6,0.8-0.9
		c0.4-0.2,0.9-0.3,1.3-0.3h3.8l0.2-0.9c0-0.1,0-0.2-0.1-0.2h-5.1l0.2-1.2h5.6c0.2,0,0.4,0,0.7,0.1s0.4,0.1,0.6,0.2s0.3,0.2,0.4,0.4
		s0.1,0.3,0.1,0.5l-1.5,7.1H129.2z M133.9,18.2h-3.2c-0.1,0-0.2,0.1-0.2,0.2l-0.7,3.3c0,0.1,0,0.1,0.1,0.1h3.2L133.9,18.2z"/>
	<path class="st1" d="M142.5,17l0.2-1.1h-2.3c-0.1,0-0.2,0.1-0.2,0.2l-1.5,6.9h-2.3l1.5-7.1c0.1-0.3,0.3-0.6,0.8-0.9
		c0.4-0.2,0.9-0.3,1.3-0.3h5.1l-0.5,2.3H142.5z"/>
	<path class="st1" d="M152.9,18.8c-0.1,0.1-0.3,0.3-0.5,0.4c-0.2,0.1-0.4,0.2-0.6,0.2s-0.5,0.1-0.7,0.1h-3.8l-0.5,2.2
		c0,0.1,0,0.1,0.1,0.1h5.1l-0.2,1.2h-5.6c-0.5,0-0.9-0.1-1.2-0.3c-0.4-0.2-0.5-0.5-0.4-0.9l1.2-5.9c0.1-0.3,0.3-0.6,0.8-0.9
		c0.4-0.2,0.9-0.3,1.3-0.3h4.1c0.2,0,0.4,0,0.7,0.1s0.4,0.1,0.6,0.2s0.3,0.2,0.4,0.4s0.1,0.3,0.1,0.5l-0.5,2.3
		C153.1,18.4,153,18.6,152.9,18.8z M151.3,16.1c0-0.1,0-0.2-0.1-0.2h-3c-0.1,0-0.2,0.1-0.2,0.2l-0.5,2.2h3.2c0.1,0,0.2,0,0.2-0.1
		L151.3,16.1z"/>
</g>
</svg>
