<?xml version="1.0" encoding="utf-8"?>
<!-- Generator: Adobe Illustrator 21.0.0, SVG Export Plug-In . SVG Version: 6.00 Build 0)  -->
<svg version="1.1" id="Layer_1" xmlns="http://www.w3.org/2000/svg" xmlns:xlink="http://www.w3.org/1999/xlink" x="0px" y="0px"
	 viewBox="0 0 149 36" style="enable-background:new 0 0 149 36;" xml:space="preserve">
<style type="text/css">
	.st0{opacity:0.7;}
	.st1{fill:#93959C;}
	.st2{fill:#B2B2B2;}
</style>
<g class="st0">
	<path class="st1" d="M11.1,22.3v8.7c0,0.3-0.1,0.7-0.4,0.9c-0.2,0.2-0.6,0.4-0.9,0.4c-0.3,0-0.7-0.1-0.9-0.4
		c-0.2-0.2-0.4-0.6-0.4-0.9v-8.7c0.3,0.3,0.8,0.4,1.2,0.4C10.3,22.7,10.8,22.5,11.1,22.3L11.1,22.3z M21.8,19.8
		c-0.3,0-0.6,0.1-0.8,0.4c-0.2,0.2-0.4,0.5-0.4,0.8v1.5c0,0.3,0.1,0.7,0.4,0.9c0.2,0.2,0.6,0.4,0.9,0.4s0.7-0.1,0.9-0.4
		c0.2-0.2,0.4-0.6,0.4-0.9V21c0-0.2,0-0.3-0.1-0.5c-0.1-0.2-0.2-0.3-0.3-0.4c-0.1-0.1-0.3-0.2-0.4-0.3C22.2,19.8,22,19.7,21.8,19.8
		L21.8,19.8z M5.9,25.5c-0.4,0-0.8-0.2-1.2-0.4v8.7c0,0.3,0.1,0.7,0.4,0.9C5.3,35,5.6,35.1,6,35.1c0.3,0,0.7-0.1,0.9-0.4
		c0.2-0.2,0.4-0.6,0.4-0.9v-8.6C6.8,25.5,6.4,25.6,5.9,25.5L5.9,25.5z M17.9,17.1c-0.2,0-0.3,0-0.5,0.1c-0.2,0.1-0.3,0.1-0.4,0.3
		c-0.1,0.1-0.2,0.2-0.3,0.4c-0.1,0.1-0.1,0.3-0.1,0.5V25c0,0.3,0.1,0.7,0.4,0.9c0.2,0.2,0.6,0.4,0.9,0.4s0.7-0.1,0.9-0.4
		c0.2-0.2,0.4-0.6,0.4-0.9v-6.6c0-0.2,0-0.3-0.1-0.5c-0.1-0.2-0.2-0.3-0.3-0.4c-0.1-0.1-0.3-0.2-0.4-0.3
		C18.2,17.2,18,17.2,17.9,17.1L17.9,17.1z M13.9,19.7c-0.5,0-0.9-0.1-1.3-0.4V28c0,0.3,0.1,0.7,0.4,0.9c0.2,0.2,0.6,0.4,0.9,0.4
		s0.7-0.1,0.9-0.4c0.2-0.2,0.4-0.6,0.4-0.9v-8.7C14.8,19.6,14.3,19.8,13.9,19.7L13.9,19.7z M3.2,26.4V2c0-0.3-0.1-0.6-0.3-0.8
		S2.3,0.9,2,0.9H1.8C1.5,0.9,1.2,1,1,1.2C0.8,1.4,0.7,1.7,0.7,2v24.4c0,0.3,0.1,0.6,0.3,0.8c0.2,0.2,0.5,0.3,0.8,0.3H2
		c0.3,0,0.6-0.1,0.8-0.3C3.1,27,3.2,26.7,3.2,26.4L3.2,26.4z M6,24.6H5.8c-0.3,0-0.6-0.1-0.8-0.3c-0.2-0.2-0.3-0.5-0.3-0.8V4.9
		c0-0.3,0.1-0.6,0.3-0.8c0.2-0.2,0.5-0.3,0.8-0.3H6c0.3,0,0.6,0.1,0.8,0.3C7,4.4,7.2,4.6,7.2,4.9v18.6c0,0.3-0.1,0.6-0.3,0.8
		C6.6,24.5,6.3,24.6,6,24.6L6,24.6z M10,21.8H9.7c-0.3,0-0.6-0.1-0.8-0.3c-0.2-0.2-0.3-0.5-0.3-0.8V7.8c0-0.1,0-0.3,0.1-0.4
		C8.7,7.2,8.8,7.1,8.9,7C9,6.9,9.2,6.8,9.3,6.8c0.1-0.1,0.3-0.1,0.4-0.1H10c0.3,0,0.6,0.1,0.8,0.3c0.2,0.2,0.3,0.5,0.3,0.8v12.8
		c0,0.3-0.1,0.6-0.3,0.8C10.6,21.7,10.3,21.8,10,21.8L10,21.8z M14,18.8h-0.3c-0.3,0-0.6-0.1-0.8-0.3c-0.2-0.2-0.3-0.5-0.3-0.8v-6.9
		c0-0.2,0-0.3,0.1-0.5c0.1-0.1,0.1-0.3,0.2-0.4c0.1-0.1,0.2-0.2,0.4-0.3c0.1-0.1,0.3-0.1,0.4-0.1H14c0.3,0,0.6,0.1,0.8,0.3
		c0.2,0.2,0.3,0.5,0.3,0.8v7c0,0.1,0,0.3-0.1,0.4c-0.1,0.1-0.1,0.3-0.2,0.4c-0.1,0.1-0.2,0.2-0.4,0.2C14.3,18.8,14.1,18.8,14,18.8
		L14,18.8z M18,16.2h-0.3c-0.3,0-0.6-0.1-0.8-0.3c-0.2-0.2-0.3-0.5-0.3-0.8v-1.8c0-0.3,0.1-0.6,0.3-0.8c0.2-0.2,0.5-0.3,0.8-0.3H18
		c0.3,0,0.6,0.1,0.8,0.3c0.2,0.2,0.3,0.5,0.3,0.8v1.8c0,0.3-0.1,0.6-0.3,0.8C18.5,16.1,18.3,16.2,18,16.2L18,16.2z"/>
</g>
<g>
	<path class="st2" d="M45.1,26v-7l-2,7H40l-2-7v7h-3.2V12.3h4.3l2.4,9l2.3-9h4.4V26H45.1z"/>
	<path class="st2" d="M52.3,26c-1.7,0-2.5-0.8-2.5-2.5v-5.6c0-1.7,0.8-2.5,2.4-2.5H57c1.5,0,2.3,0.8,2.3,2.4v1.5
		c0,1.6-0.8,2.5-2.3,2.5h-3.6c-0.2,0-0.4,0-0.6-0.1v0.8c0,0.4,0.2,0.5,0.5,0.5h5.4v3H52.3z M56.2,18.7c0-0.2-0.1-0.4-0.4-0.4h-2.6
		c-0.2,0-0.4,0.1-0.4,0.4v0.7c0,0.2,0.1,0.4,0.4,0.4h2.6c0.2,0,0.4-0.1,0.4-0.4V18.7z"/>
	<path class="st2" d="M63.2,26c-1.7,0-2.5-0.8-2.5-2.4v-5.7c0-1.7,0.8-2.5,2.5-2.5h4v-3.1h3.1V26H63.2z M67.1,18.6h-2.8
		c-0.4,0-0.5,0.2-0.5,0.5v3.2c0,0.4,0.2,0.6,0.5,0.6h2.8V18.6z"/>
	<path class="st2" d="M72.5,14.6c-0.4,0-0.7-0.2-0.7-0.7v-1.2c0-0.5,0.2-0.7,0.7-0.7h1.7c0.5,0,0.7,0.2,0.7,0.7v1.2
		c0,0.5-0.2,0.7-0.7,0.7H72.5z M71.8,26V15.4h3.1V26H71.8z"/>
	<path class="st2" d="M78.7,26c-1.5,0-2.3-0.8-2.3-2.4V22c0-1.6,0.8-2.4,2.3-2.4h3.5c0.1,0,0.2,0,0.3,0s0.2,0.1,0.3,0.1v-0.8
		c0-0.4-0.2-0.5-0.5-0.5h-5.5v-3h6.6c1.7,0,2.5,0.8,2.5,2.5v5.6c0,1.7-0.8,2.5-2.4,2.5H78.7z M82.8,22c0-0.2-0.1-0.4-0.4-0.4h-2.6
		c-0.2,0-0.4,0.1-0.4,0.4v0.7c0,0.2,0.1,0.4,0.4,0.4h2.6c0.2,0,0.4-0.1,0.4-0.4V22z"/>
	<path class="st2" d="M92.8,26v-3.4h6.1c0.4,0,0.5-0.2,0.5-0.5v-0.9c0-0.4-0.2-0.5-0.5-0.5h-3.6c-1.7,0-2.5-0.8-2.5-2.4v-3.3
		c0-1.7,0.8-2.6,2.4-2.6h7.1v3.4h-5.8c-0.4,0-0.5,0.2-0.5,0.5v0.9c0,0.4,0.2,0.5,0.5,0.5h3.7c1.6,0,2.4,0.8,2.4,2.4v3.2
		c0,1.8-0.9,2.7-2.6,2.7H92.8z"/>
	<path class="st2" d="M106.7,26c-1.7,0-2.6-0.8-2.6-2.3V12.5h3.1v3h2.5v2.8h-2.5v3.9c0,0.4,0.2,0.6,0.5,0.6h2V26H106.7z"/>
	<path class="st2" d="M113.3,26c-1.7,0-2.5-0.8-2.5-2.4v-5.7c0-1.7,0.8-2.5,2.5-2.5h4.6c1.6,0,2.4,0.8,2.4,2.5v5.6
		c0,1.6-0.8,2.5-2.4,2.5H113.3z M117.2,19.1c0-0.4-0.2-0.5-0.5-0.5h-2.3c-0.4,0-0.5,0.2-0.5,0.5v3.2c0,0.4,0.2,0.6,0.5,0.6h2.3
		c0.4,0,0.5-0.2,0.5-0.5V19.1z"/>
	<path class="st2" d="M121.8,26v-8.1c0-0.8,0.2-1.4,0.6-1.9s1-0.6,1.9-0.6h3.5v3.1h-2.3c-0.4,0-0.5,0.2-0.5,0.5V26H121.8z"/>
	<path class="st2" d="M131.2,26c-1.7,0-2.5-0.8-2.5-2.5v-5.6c0-1.7,0.8-2.5,2.4-2.5h4.8c1.5,0,2.3,0.8,2.3,2.4v1.5
		c0,1.6-0.8,2.5-2.3,2.5h-3.6c-0.2,0-0.4,0-0.6-0.1v0.8c0,0.4,0.2,0.5,0.5,0.5h5.4v3H131.2z M135.2,18.7c0-0.2-0.1-0.4-0.4-0.4h-2.6
		c-0.2,0-0.4,0.1-0.4,0.4v0.7c0,0.2,0.1,0.4,0.4,0.4h2.6c0.2,0,0.4-0.1,0.4-0.4V18.7z"/>
</g>
</svg>
