<?xml version="1.0" encoding="utf-8"?>
<!-- Generator: Adobe Illustrator 21.0.0, SVG Export Plug-In . SVG Version: 6.00 Build 0)  -->
<svg version="1.1" id="Layer_1" xmlns="http://www.w3.org/2000/svg" xmlns:xlink="http://www.w3.org/1999/xlink" x="0px" y="0px"
	 viewBox="0 0 154 36" style="enable-background:new 0 0 154 36;" xml:space="preserve">
<style type="text/css">
	.st0{fill:#93959C;}
</style>
<path class="st0" d="M17.1,24.2l-0.7,9.7c1,0,1.4-0.4,1.9-0.9l4.6-4.4l9.6,7c1.8,1,3,0.5,3.5-1.6l6.3-29.6l0,0
	c0.6-2.6-0.9-3.6-2.7-3L2.6,15.6c-2.5,1-2.5,2.4-0.4,3l9.5,2.9l22-13.8c1-0.7,2-0.3,1.2,0.4L17.1,24.2z"/>
<g>
	<path class="st0" d="M63.2,11.7h-5.1v13h-1.4v-13h-5.1v-1.2h11.5V11.7z"/>
	<path class="st0" d="M67.3,24.9c-0.8,0-1.5-0.1-2.1-0.4c-0.6-0.3-1.2-0.7-1.7-1.2s-0.8-1.1-1.1-1.7c-0.3-0.7-0.4-1.4-0.4-2.1
		c0-0.7,0.1-1.4,0.4-2.1c0.3-0.6,0.6-1.2,1.1-1.7s1-0.9,1.6-1.2s1.3-0.4,2.1-0.4c0.8,0,1.5,0.1,2.1,0.4c0.6,0.3,1.2,0.7,1.6,1.2
		c0.5,0.5,0.8,1.1,1.1,1.7c0.3,0.6,0.4,1.3,0.4,2c0,0.1,0,0.2,0,0.3c0,0.1,0,0.2,0,0.2h-8.9c0,0.6,0.2,1.1,0.4,1.5
		c0.2,0.5,0.5,0.9,0.9,1.2s0.7,0.6,1.2,0.8s0.9,0.3,1.4,0.3c0.3,0,0.7,0,1-0.1c0.3-0.1,0.6-0.2,0.9-0.4c0.3-0.2,0.5-0.4,0.8-0.6
		c0.2-0.2,0.4-0.5,0.5-0.8l1.2,0.3c-0.2,0.4-0.4,0.7-0.7,1c-0.3,0.3-0.6,0.6-1,0.8s-0.8,0.4-1.3,0.5C68.2,24.8,67.8,24.9,67.3,24.9z
		 M71.1,18.9c0-0.6-0.2-1.1-0.4-1.5c-0.2-0.5-0.5-0.9-0.8-1.2c-0.3-0.3-0.7-0.6-1.2-0.8c-0.4-0.2-0.9-0.3-1.4-0.3
		c-0.5,0-1,0.1-1.4,0.3c-0.5,0.2-0.9,0.4-1.2,0.8c-0.3,0.3-0.6,0.7-0.8,1.2s-0.3,1-0.4,1.5H71.1z"/>
	<path class="st0" d="M74.6,10.1h1.4v12.2c0,0.4,0.1,0.7,0.3,0.9c0.2,0.2,0.5,0.3,0.9,0.3c0.1,0,0.3,0,0.5-0.1s0.4-0.1,0.6-0.2
		l0.2,1.1c-0.3,0.1-0.6,0.2-0.9,0.3c-0.4,0.1-0.7,0.1-1,0.1c-0.6,0-1.1-0.2-1.5-0.5c-0.4-0.4-0.5-0.8-0.5-1.5V10.1z"/>
	<path class="st0" d="M84.4,24.9c-0.8,0-1.5-0.1-2.1-0.4c-0.6-0.3-1.2-0.7-1.7-1.2s-0.8-1.1-1.1-1.7s-0.4-1.4-0.4-2.1
		c0-0.7,0.1-1.4,0.4-2.1c0.3-0.6,0.6-1.2,1.1-1.7s1-0.9,1.7-1.2c0.6-0.3,1.3-0.4,2.1-0.4c0.8,0,1.5,0.1,2.1,0.4
		c0.6,0.3,1.2,0.7,1.6,1.2c0.5,0.5,0.8,1.1,1.1,1.7c0.3,0.6,0.4,1.3,0.4,2c0,0.1,0,0.2,0,0.3c0,0.1,0,0.2,0,0.2h-8.9
		c0,0.6,0.2,1.1,0.4,1.5c0.2,0.5,0.5,0.9,0.9,1.2c0.3,0.3,0.7,0.6,1.2,0.8s0.9,0.3,1.4,0.3c0.3,0,0.7,0,1-0.1
		c0.3-0.1,0.6-0.2,0.9-0.4c0.3-0.2,0.5-0.4,0.8-0.6c0.2-0.2,0.4-0.5,0.5-0.8l1.2,0.3c-0.2,0.4-0.4,0.7-0.7,1c-0.3,0.3-0.6,0.6-1,0.8
		s-0.8,0.4-1.3,0.5C85.4,24.8,84.9,24.9,84.4,24.9z M88.3,18.9c0-0.6-0.2-1.1-0.4-1.5s-0.5-0.9-0.8-1.2c-0.3-0.3-0.7-0.6-1.2-0.8
		c-0.4-0.2-0.9-0.3-1.4-0.3s-1,0.1-1.4,0.3c-0.5,0.2-0.8,0.4-1.2,0.8c-0.3,0.3-0.6,0.7-0.8,1.2s-0.3,1-0.4,1.5H88.3z"/>
	<path class="st0" d="M95.9,24.8c-0.7,0-1.4-0.2-2-0.5c-0.6-0.3-1.1-0.7-1.5-1.2c-0.4-0.5-0.8-1.1-1-1.7c-0.2-0.6-0.4-1.3-0.4-2
		c0-0.7,0.1-1.4,0.4-2.1c0.2-0.7,0.6-1.2,1-1.7c0.4-0.5,0.9-0.9,1.5-1.2c0.6-0.3,1.3-0.4,2-0.4c0.9,0,1.7,0.2,2.3,0.7
		c0.7,0.4,1.2,1,1.7,1.7v-2.2h1.2v10.5c0,0.7-0.1,1.4-0.4,1.9c-0.3,0.6-0.6,1-1.1,1.4s-1,0.7-1.6,0.8c-0.6,0.2-1.3,0.3-2,0.3
		c-1.2,0-2.2-0.2-2.9-0.6c-0.7-0.4-1.3-1-1.8-1.7l0.8-0.7c0.4,0.7,1,1.2,1.6,1.5c0.7,0.3,1.4,0.5,2.2,0.5c0.5,0,1-0.1,1.4-0.2
		c0.5-0.1,0.8-0.3,1.2-0.6c0.3-0.3,0.6-0.6,0.8-1s0.3-0.9,0.3-1.5v-2.1c-0.4,0.7-0.9,1.2-1.6,1.6C97.3,24.6,96.6,24.8,95.9,24.8z
		 M96.2,23.7c0.4,0,0.8-0.1,1.2-0.2c0.4-0.1,0.7-0.3,1-0.6s0.6-0.5,0.8-0.8c0.2-0.3,0.4-0.6,0.4-0.9v-3.2c-0.1-0.4-0.3-0.7-0.6-1
		c-0.3-0.3-0.5-0.6-0.9-0.8c-0.3-0.2-0.7-0.4-1-0.5c-0.4-0.1-0.7-0.2-1.1-0.2c-0.6,0-1.1,0.1-1.6,0.4s-0.8,0.6-1.2,1
		s-0.6,0.9-0.7,1.4s-0.3,1-0.3,1.5c0,0.6,0.1,1.1,0.3,1.6c0.2,0.5,0.5,1,0.8,1.3c0.4,0.4,0.8,0.7,1.2,0.9
		C95.2,23.6,95.7,23.7,96.2,23.7z"/>
	<path class="st0" d="M109.2,15.4c-0.9,0-1.7,0.3-2.4,0.8c-0.7,0.5-1.2,1.1-1.4,2v6.5H104V14.2h1.3v2.5c0.4-0.8,0.9-1.4,1.6-1.9
		s1.4-0.7,2.1-0.7c0.1,0,0.2,0,0.3,0V15.4z"/>
	<path class="st0" d="M113.5,24.9c-0.5,0-1-0.1-1.4-0.3c-0.4-0.2-0.8-0.4-1.1-0.7c-0.3-0.3-0.6-0.6-0.7-1c-0.2-0.4-0.3-0.8-0.3-1.3
		s0.1-0.9,0.3-1.3c0.2-0.4,0.5-0.7,0.9-1c0.4-0.3,0.8-0.5,1.4-0.7s1.1-0.2,1.8-0.2c0.5,0,1.1,0,1.6,0.1c0.5,0.1,1,0.2,1.5,0.4v-0.9
		c0-0.9-0.3-1.6-0.8-2.2c-0.5-0.5-1.2-0.8-2.2-0.8c-0.5,0-1.1,0.1-1.6,0.3c-0.6,0.2-1.1,0.5-1.7,0.9l-0.5-0.9
		c1.3-0.9,2.7-1.4,3.9-1.4c1.3,0,2.3,0.4,3.1,1.1c0.7,0.7,1.1,1.7,1.1,3v4.7c0,0.4,0.2,0.6,0.5,0.6v1.2c-0.2,0-0.4,0.1-0.5,0.1
		c-0.3,0-0.6-0.1-0.8-0.3s-0.3-0.4-0.3-0.7l0-0.8c-0.5,0.6-1.1,1.1-1.8,1.4C115.2,24.7,114.4,24.9,113.5,24.9z M113.9,23.8
		c0.7,0,1.4-0.1,1.9-0.4c0.6-0.3,1-0.6,1.4-1.1c0.1-0.1,0.2-0.3,0.3-0.4c0.1-0.1,0.1-0.3,0.1-0.4v-1.7c-0.5-0.2-0.9-0.3-1.4-0.4
		c-0.5-0.1-1-0.1-1.5-0.1c-1,0-1.7,0.2-2.3,0.6c-0.6,0.4-0.9,0.9-0.9,1.6c0,0.3,0.1,0.6,0.2,0.9c0.1,0.3,0.3,0.5,0.5,0.7
		s0.5,0.4,0.8,0.5S113.5,23.8,113.9,23.8z"/>
	<path class="st0" d="M137.3,24.7H136v-5.8c0-1.2-0.2-2.1-0.6-2.7s-1-0.9-1.7-0.9c-0.4,0-0.8,0.1-1.1,0.2c-0.4,0.1-0.7,0.4-1,0.6
		c-0.3,0.3-0.6,0.6-0.8,1c-0.2,0.4-0.4,0.8-0.5,1.2v6.4h-1.4v-5.8c0-1.2-0.2-2.1-0.6-2.7s-0.9-0.8-1.7-0.8c-0.8,0-1.5,0.3-2.1,0.8
		c-0.6,0.5-1.1,1.3-1.3,2.2v6.4h-1.4V14.2h1.2v2.4c0.4-0.8,1-1.4,1.7-1.9c0.7-0.4,1.5-0.7,2.3-0.7c0.9,0,1.6,0.2,2.1,0.7
		c0.5,0.5,0.8,1.1,1,1.9c1-1.8,2.3-2.7,4-2.7c0.6,0,1.1,0.1,1.5,0.3c0.4,0.2,0.7,0.5,1,0.9c0.2,0.4,0.4,0.9,0.5,1.4
		c0.1,0.6,0.2,1.2,0.2,1.9V24.7z"/>
</g>
</svg>
