<?xml version="1.0" encoding="utf-8"?>
<!-- Generator: Adobe Illustrator 21.0.0, SVG Export Plug-In . SVG Version: 6.00 Build 0)  -->
<svg version="1.1" id="Layer_1" xmlns="http://www.w3.org/2000/svg" xmlns:xlink="http://www.w3.org/1999/xlink" x="0px" y="0px"
	 viewBox="0 0 142 36" style="enable-background:new 0 0 142 36;" xml:space="preserve">
<style type="text/css">
	.st0{opacity:0.7;}
	.st1{fill:#93959C;}
</style>
<g class="st0">
	<path class="st1" d="M1.2,16.3c0.9-3.6,2.9-6.7,5.8-9C9.9,5,13.5,3.8,17.2,3.8S24.4,5,27.3,7.3s4.9,5.4,5.8,9h-1.4
		c-2.4,0-4.8,0.7-6.8,2.1c-0.1,0.1-0.2,0.2-0.4,0.2h-0.2c-0.1-0.1-0.2-0.1-0.4-0.2c-2-1.4-4.4-2.1-6.8-2.1c-2.4,0-4.8,0.7-6.8,2.1
		c-0.1,0.1-0.2,0.2-0.4,0.2H9.8c-0.1-0.1-0.2-0.1-0.4-0.2c-2-1.4-4.4-2.1-6.8-2.1H1.2z M29.1,23.8c0.7-0.6,1.7-0.9,2.6-0.9h1.9v-3.9
		h-1.9c-1.6,0-3.3,0.5-4.6,1.5c-0.8,0.6-1.7,0.9-2.6,0.9s-1.8-0.3-2.6-0.9c-1.4-1-3-1.5-4.7-1.5s-3.3,0.5-4.7,1.5
		c-0.8,0.6-1.7,0.9-2.6,0.9c-0.9,0-1.8-0.3-2.6-0.9c-1.4-1-3-1.5-4.7-1.5h-2V23h1.9c0.9,0,1.9,0.3,2.6,0.9c1.4,1,3,1.5,4.7,1.5
		c1.7,0,3.3-0.5,4.7-1.5c0.7-0.6,1.7-0.9,2.6-0.9c0.9,0,1.9,0.3,2.6,0.9c1.4,1,3,1.5,4.7,1.5C26.1,25.3,27.7,24.8,29.1,23.8
		L29.1,23.8z M29.1,30.7c0.7-0.6,1.7-0.9,2.6-0.9h1.9V26h-1.9c-1.6,0-3.3,0.5-4.6,1.5c-0.8,0.6-1.7,0.9-2.6,0.9s-1.8-0.3-2.6-0.9
		c-1.4-1-3-1.5-4.7-1.5s-3.3,0.5-4.7,1.5c-0.8,0.6-1.7,0.9-2.6,0.9c-0.9,0-1.8-0.3-2.6-0.9c-1.4-1-3-1.5-4.7-1.5h-2v3.9h1.9
		c0.9,0,1.9,0.3,2.6,0.9c1.4,1,3,1.5,4.7,1.5c1.7,0,3.3-0.5,4.7-1.5c0.7-0.6,1.7-0.9,2.6-0.9c0.9,0,1.9,0.3,2.6,0.9
		c1.4,1,3,1.5,4.7,1.5C26.1,32.2,27.7,31.6,29.1,30.7L29.1,30.7z"/>
</g>
<g>
	<path class="st1" d="M60.7,10.9c0.2,0.1,0.2,0.2,0.2,0.3c0,0.1-0.1,0.2-0.4,0.2c-0.4,0-0.6,0-0.5,0c-0.2,0-0.4,0.1-0.6,0.3
		c-0.5,0.4-1,1.4-1.6,2.9c-0.8,1.9-1.5,4.4-2.1,7.3l0.7-1.2c0.1-0.2,0.3-0.3,0.4-0.3c0.1,0,0.1,0.1,0.1,0.2c0,0.1,0,0.2-0.1,0.3
		c-0.4,0.8-0.5,1.3-0.6,1.3c-0.2,0.6-0.4,1.1-0.4,1.4c-0.1,0.4-0.1,0.6-0.3,0.6c-0.1,0-0.4-0.1-0.9-0.4c-0.1-0.1-0.2-0.3-0.2-0.7
		c0-0.8,0.2-2.2,0.7-4.2c-2.4-0.2-4.3-0.1-5.5,0.1c-0.3,0.7-0.7,1.7-1.2,2.8s-0.9,1.9-1.1,2.3c-0.2,0.3-0.4,0.4-0.7,0.3
		c-0.7-0.2-1-0.4-1-0.6c0-0.1,0-0.3,0.1-0.5c0.2-0.3,0.4-0.7,0.6-1.2c0-0.1,0-0.3,0-0.7c0-0.2,0.1-0.3,0.2-0.3
		c0.1,0,0.2,0.1,0.5,0.4c0.2,0.2,0.2,0.3,0.2,0.4c0.4-0.4,0.7-1.2,1.1-2.1c-0.3-0.7-0.5-1.2-0.5-1.4c0-0.4,0.5-0.6,1.4-0.6
		c0.3-0.7,0.7-1.7,1.2-3c0.5-1.4,0.8-2.3,0.9-2.9c-0.1,0.1-0.6,0.4-1.6,0.7c-1.2,0.4-2,0.7-2.4,0.9c-0.7,0.3-1,0.7-1,1.2
		c0,0.2,0,0.4,0.1,0.7c0,0,0,0.1,0,0.1c0,0.1-0.1,0.2-0.2,0.2c-0.1,0-0.2-0.1-0.3-0.2c-0.2-0.3-0.3-0.6-0.5-1.1
		c-0.2-0.5-0.3-0.9-0.2-1.1c0-0.5,0.7-0.9,2.1-1.2c0.9-0.2,1.9-0.4,2.8-0.6c0.6-0.2,1.1-0.5,1.3-0.8c0.1-0.2,0.2-0.3,0.3-0.3
		c0.1,0,0.3,0.1,0.6,0.3c0.1,0.1,0.2,0.2,0.2,0.4c0,0.3-0.3,1.4-1,3c-0.3,0.7-0.8,2-1.5,3.8c1.8,0.2,3.5,0.2,5.3,0.1
		c0.4-1.6,0.9-3,1.4-4.4c0.9-2.2,1.6-3.3,2.3-3.3C59.6,10.3,60.1,10.5,60.7,10.9z"/>
	<path class="st1" d="M65.9,16.9c-0.9,1.6-1.5,3.5-1.9,5.7c0.2-0.3,0.4-0.7,0.7-1.2c0-0.1,0.1-0.1,0.2-0.1c0.1,0,0.1,0.1,0.1,0.2
		c0,0,0,0.1,0,0.1c-0.4,1-0.7,1.7-0.8,2.2c-0.1,0.3-0.2,0.5-0.3,0.5s-0.4-0.1-0.8-0.4c-0.2-0.1-0.3-0.4-0.2-0.8
		c0.3-1.4,0.6-2.7,1-3.7c-1.3,2-2.3,3.6-3.2,4.5c-0.2,0.2-0.4,0.3-0.6,0.3c-0.2,0-0.4-0.1-0.6-0.2c-0.4-0.1-0.7-0.3-0.7-0.7
		c0-0.1,0-0.2,0-0.2c0.2-1.9,0.5-3.4,1-4.6c-0.1,0.1-0.3,0.3-0.5,0.5C59.1,19,59.1,19,59,18.9c-0.1,0,0-0.1,0-0.2
		c0.4-0.5,0.6-0.9,0.6-1c0.2-0.5,0.4-0.9,0.6-1.2c0.1-0.1,0.2-0.2,0.4-0.2c0.2,0,0.4,0.1,0.8,0.3c0.1,0.1,0.1,0.1,0.1,0.2l-0.2,0.3
		c-0.3,0.5-0.7,1.4-1,2.6c-0.4,1.4-0.6,2.5-0.6,3.3c0,0.3,0.1,0.4,0.2,0.4c0.1,0,0.3-0.1,0.5-0.4c0.5-0.5,1.2-1.5,2.2-3
		c0.8-1.3,1.3-2.2,1.5-2.6c0.3-0.7,0.5-1.1,0.7-1.2c0.1-0.1,0.2-0.1,0.3-0.1s0.3,0.1,0.5,0.2s0.4,0.2,0.4,0.3c0,0,0,0-0.1,0.1
		S65.9,16.9,65.9,16.9z"/>
	<path class="st1" d="M78.2,20.9c-0.4,0.6-1.1,1.7-1.9,3.3c-0.1,0.1-0.1,0.2-0.1,0.2c-0.1,0-0.2,0-0.4,0c-0.4-0.1-0.7-0.3-0.7-0.4
		c0-0.1,0-0.2,0.1-0.3c0.5-1.1,0.9-2.4,1.3-3.6s0.5-2.3,0.5-3c0-0.2-0.1-0.3-0.2-0.3c-0.1,0-0.2,0.1-0.4,0.2
		c-0.6,0.4-1.3,1.3-2.1,2.6c-1.1,1.6-1.8,3-2.2,4.4c0,0.2-0.1,0.2-0.1,0.3c0,0-0.1,0-0.3,0c-0.2-0.1-0.4-0.2-0.6-0.3
		c-0.1-0.1-0.1-0.1-0.1-0.2c0,0,0-0.1,0.1-0.4c0.9-2.1,1.3-4.2,1.3-6.2c0-0.2-0.1-0.3-0.2-0.3c-0.1,0-0.2,0.1-0.3,0.2
		c-0.7,0.6-1.5,1.6-2.3,3c-0.8,1.4-1.4,2.7-1.8,3.8c-0.1,0.3-0.2,0.5-0.3,0.5c-0.1,0-0.4-0.1-0.8-0.4c-0.1-0.1-0.2-0.1-0.2-0.2
		c0-0.1,0.1-0.2,0.2-0.3c0.3-0.6,0.6-1.5,0.9-2.9c0.4-1.6,0.5-2.7,0.5-3.4c-0.1,0.1-0.3,0.3-0.5,0.5s-0.4,0.4-0.5,0.5
		c-0.1,0.1-0.2,0.1-0.2,0.1c-0.1,0-0.1-0.1-0.1-0.2c0-0.1,0-0.2,0.1-0.3c0.4-0.4,0.7-0.8,1.1-1.3c0.1-0.2,0.2-0.3,0.3-0.3
		c0.1,0,0.2,0.1,0.4,0.3c0.2,0.1,0.3,0.1,0.5,0.2c0.1,0.1,0.2,0.2,0.2,0.4c0,0.1,0,0.1,0,0.2c-0.2,1.3-0.4,2.4-0.8,3.5
		c1.2-2.1,2.2-3.5,3.2-4.4c0.1-0.1,0.3-0.2,0.4-0.2c0.1,0,0.3,0.1,0.6,0.3c0.3,0.1,0.4,0.2,0.5,0.3c0.1,0.1,0.1,0.3,0.1,0.5
		c0,1.3-0.2,2.5-0.5,3.5c1.3-2,2.4-3.5,3.5-4.5c0.1-0.1,0.3-0.2,0.4-0.2c0.2,0,0.4,0.1,0.7,0.4c0.5,0.1,0.7,0.4,0.7,0.9
		c-0.1,1.6-0.4,3.1-1,4.6c0.3-0.4,0.6-0.7,0.8-1c0.1-0.1,0.2-0.2,0.3-0.2c0.1,0,0.1,0.1,0.1,0.2C78.3,20.7,78.3,20.8,78.2,20.9z"/>
	<path class="st1" d="M87,8.8C87.1,8.9,87.2,9,87.2,9c0,0.1-0.1,0.2-0.2,0.2c-0.1,0-0.1,0-0.2-0.1c-0.3-0.2-0.5-0.2-0.7-0.2
		c-0.4,0-0.9,0.4-1.3,1.2c-1.8,2.8-3,6.6-3.8,11.2c0.7-1.1,1.2-2,1.5-2.4c0.7-1,1.4-1.8,2.1-2.5c0.4-0.3,0.7-0.5,0.9-0.5
		c0.1,0,0.4,0.1,0.7,0.3c0.6,0.3,0.8,0.7,0.8,1.2c-0.1,1.3-0.4,2.5-0.9,3.7c-0.5,1.2-1.1,2.1-1.8,2.8c-0.2,0.2-0.4,0.3-0.6,0.3
		c-0.4,0-1-0.5-1.8-1.4c-0.1-0.1-0.1-0.2-0.1-0.3c0-0.1,0.1-0.1,0.2-0.1s0.2,0,0.3,0.1c0.4,0.3,0.7,0.5,1,0.5c0.3,0,0.5-0.2,0.8-0.5
		c0.4-0.6,0.9-1.4,1.2-2.3c0.4-1.1,0.6-2.1,0.6-3c0-0.3-0.1-0.5-0.3-0.5c-0.1,0-0.3,0.1-0.4,0.2c-0.8,0.7-1.6,1.7-2.4,2.9
		c-0.9,1.4-1.5,2.7-1.9,3.9c-0.1,0.2-0.2,0.4-0.3,0.4c-0.1,0-0.1,0-0.2-0.1c-0.3-0.2-0.5-0.4-0.6-0.4c-0.1-0.1-0.2-0.3-0.2-0.5
		c0-0.1,0-0.2,0-0.4c0.8-4.1,1.7-7.7,2.9-10.6c0.9-2.2,1.7-3.6,2.4-4.3c0.2-0.2,0.4-0.3,0.5-0.3c0.2,0,0.4,0.1,0.7,0.3
		C86.4,8.3,86.7,8.6,87,8.8z"/>
	<path class="st1" d="M92.7,21.2c-1.6,2-2.7,3-3.3,3c-0.3,0-0.7-0.2-1.2-0.6c-0.5-0.2-0.7-0.5-0.7-0.9c0-0.1,0-0.1,0-0.2
		c0.1-0.9,0.4-1.9,0.7-3c-0.2-0.1-0.4-0.2-0.4-0.4c0-0.1,0.1-0.1,0.2-0.1c0.1,0,0.2,0,0.3,0.1c0.6-1.3,1.1-2.2,1.6-2.8
		c0.3-0.4,0.6-0.5,0.8-0.5c0.1,0,0.4,0.1,0.8,0.3c0-0.2,0-0.3,0.2-0.3c0,0,0.2,0,0.5,0c0.3,0,0.4,0,0.4,0.1c0,0,0,0.1,0,0.2
		s0,0.2,0,0.3c0,0.2,0,0.5,0,0.9s0,0.6,0,0.7c0,0.8-0.2,1.4-0.7,1.7C91.5,19.8,91,20,90.5,20c-0.3,0-0.7-0.1-1.3-0.2
		C89.1,20,89,20.4,88.8,21c-0.2,0.7-0.3,1.4-0.3,2c0,0.3,0.1,0.5,0.3,0.5c0.1,0,0.2,0,0.3-0.1c0.8-0.3,1.8-1.1,3.2-2.4
		c0.1-0.1,0.2-0.1,0.3-0.1c0.1,0,0.2,0.1,0.2,0.2C92.8,21.1,92.8,21.1,92.7,21.2z M91.6,16.9c0-0.3-0.1-0.4-0.2-0.4
		c-0.1,0-0.2,0.1-0.3,0.2c-0.6,0.5-1.2,1.4-1.7,2.7c0.1,0,0.4,0,0.7,0.1c0.5,0,0.9-0.1,1.2-0.4c0.2-0.2,0.3-0.5,0.3-1
		C91.6,18.4,91.6,18,91.6,16.9z"/>
	<path class="st1" d="M99.6,16.7c0,0.9-0.1,1.7-0.3,2.4c-0.1,0.2-0.2,0.4-0.3,0.4c-0.1,0-0.3-0.1-0.6-0.4c-0.2-0.1-0.2-0.3-0.1-0.6
		c0.2-0.6,0.3-1.1,0.3-1.4c0-0.1,0-0.2-0.1-0.2c-0.1,0-0.2,0.1-0.4,0.4c-1.4,1.8-2.4,3.7-3,5.9c-0.2,0.7-0.4,1-0.5,1
		c-0.1,0-0.3-0.1-0.8-0.3c-0.2-0.1-0.3-0.3-0.2-0.6c0.5-2.3,1.1-4.2,1.7-5.7c-0.5,0.5-0.8,0.9-0.9,1c-0.1,0.1-0.1,0.1-0.2,0.1
		c-0.1,0-0.2,0-0.2-0.1c0-0.1,0-0.1,0.1-0.2c0.3-0.4,0.7-1,1.3-1.8c0.2-0.3,0.3-0.4,0.5-0.4c0.1,0,0.4,0.1,0.7,0.3
		c0.2,0.1,0.2,0.2,0.1,0.4c-0.1,0.2-0.4,0.9-0.8,2c-0.4,1.1-0.6,2-0.8,2.6c0.9-2,1.9-3.7,3-5.2c0.2-0.3,0.4-0.4,0.5-0.4
		c0.1,0,0.3,0.1,0.5,0.2c0.3,0,0.4,0.1,0.5,0.1C99.6,16.3,99.6,16.4,99.6,16.7z"/>
	<path class="st1" d="M111.7,12.6c-0.1,1.7-0.7,3.1-1.8,4.2c-0.2,0.2-0.6,0.5-1,0.7c-0.4,0.2-0.7,0.3-0.9,0.3c1.6,1,2.6,1.8,3.2,2.6
		c0.2,0.3,0.4,0.6,0.4,0.9c0,0.4-0.2,0.9-0.7,1.5c0.1,0.1,0.1,0.2,0.1,0.3c0,0.8-1.5,1.2-4.4,1.2c-0.6,0-1.3,0-2-0.1
		s-1.1-0.2-1.1-0.5c-0.1-0.3,0-0.6,0.2-1.1c0.1-0.2,0.2-0.3,0.4-0.3c-0.1,0,0.1,0,0.6,0.1c0.1,0,0.3,0.2,0.5,0.4s0.4,0.4,0.8,0.4
		c0.2,0,0.5,0,0.8,0c1.4,0,2.5-0.2,3.2-0.5c0.4-0.2,0.6-0.4,0.6-0.8c0-0.4-0.2-0.8-0.7-1.3c-0.3-0.3-0.9-0.8-1.7-1.4
		c-0.9-0.7-1.6-1.1-1.9-1.2c-0.7,0-1-0.1-1-0.4c0-0.1,0.3-0.4,0.9-0.8c0.1-0.1,0.3-0.2,0.4-0.2s0.3,0.1,0.5,0.2
		c0.2,0.1,0.3,0.2,0.5,0.3c0.6,0,1.2-0.4,1.8-1.1c0.3-0.4,0.6-0.9,0.9-1.6c0.3-0.8,0.5-1.5,0.5-2c0-0.4-0.1-0.6-0.3-0.7
		c-0.1-0.1-0.4-0.1-0.8-0.1c-0.3,0-0.7,0.1-1.3,0.2c-0.7,0.2-1.2,0.3-1.5,0.5c-0.6,2-1.3,4.2-2.2,6.6c-0.8,2.2-1.4,3.5-1.7,3.9
		c-0.2,0.3-0.3,0.5-0.4,0.5c-0.1,0.1-0.4,0.2-0.9,0.3c-0.3,0.1-0.5,0-0.5-0.1c0-0.1,0-0.1,0-0.2c0.4-1,0.6-1.8,0.6-2.3
		c0-0.3,0-0.5,0.1-0.6c0,0,0.3-0.1,0.8-0.3c0.2-0.1,0.3,0,0.3,0.2c0.6-1.2,1.1-2.6,1.7-4.2c0.5-1.4,0.8-2.5,0.9-3.3
		c-1.7,0.7-2.9,1.5-3.6,2.3c-0.2,0.2-0.2,0.5-0.2,0.7c0,0.2,0,0.4,0.1,0.8c0,0.1,0,0.2,0,0.2c0,0.1,0,0.2-0.1,0.2
		c-0.1,0-0.2-0.1-0.4-0.2c-0.7-0.8-1-1.3-1-1.7c0-0.1,0.1-0.4,0.3-0.6c0.4-0.5,1.2-1.1,2.2-1.8c1-0.7,2-1.1,2.8-1.4
		c0.1-0.4,0.1-0.7,0.1-0.8c0-0.2,0-0.3,0.2-0.3c0.1,0,0.2,0,0.3,0.1c0.3,0.3,0.4,0.5,0.4,0.6c1.4-0.4,2.4-0.6,2.9-0.6
		c0.4,0,0.7,0.1,0.9,0.3c0.1,0.1,0.3,0.4,0.6,0.8c0.2,0,0.4,0,0.5,0.1C111.7,12.1,111.7,12.3,111.7,12.6z"/>
	<path class="st1" d="M117.8,21.2c-1.6,2-2.7,3-3.3,3c-0.3,0-0.7-0.2-1.2-0.6c-0.5-0.2-0.7-0.5-0.7-0.9c0-0.1,0-0.1,0-0.2
		c0.1-0.9,0.4-1.9,0.7-3c-0.2-0.1-0.4-0.2-0.4-0.4c0-0.1,0.1-0.1,0.2-0.1c0.1,0,0.2,0,0.3,0.1c0.6-1.3,1.1-2.2,1.6-2.8
		c0.3-0.4,0.6-0.5,0.8-0.5c0.1,0,0.4,0.1,0.8,0.3c0-0.2,0-0.3,0.2-0.3c0,0,0.2,0,0.5,0c0.3,0,0.4,0,0.4,0.1c0,0,0,0.1,0,0.2
		s0,0.2,0,0.3c0,0.2,0,0.5,0,0.9s0,0.6,0,0.7c0,0.8-0.2,1.4-0.7,1.7c-0.4,0.3-0.9,0.4-1.4,0.4c-0.3,0-0.7-0.1-1.3-0.2
		c-0.1,0.2-0.2,0.6-0.4,1.2c-0.2,0.7-0.3,1.4-0.3,2c0,0.3,0.1,0.5,0.3,0.5c0.1,0,0.2,0,0.3-0.1c0.8-0.3,1.8-1.1,3.2-2.4
		c0.1-0.1,0.2-0.1,0.3-0.1c0.1,0,0.2,0.1,0.2,0.2C117.9,21.1,117.8,21.1,117.8,21.2z M116.6,16.9c0-0.3-0.1-0.4-0.2-0.4
		c-0.1,0-0.2,0.1-0.3,0.2c-0.6,0.5-1.2,1.4-1.7,2.7c0.1,0,0.4,0,0.7,0.1c0.5,0,0.9-0.1,1.2-0.4c0.2-0.2,0.3-0.5,0.3-1
		C116.6,18.4,116.6,18,116.6,16.9z"/>
	<path class="st1" d="M121.6,21.8c0,0.8-0.4,1.3-1.3,1.6c-0.1,0.3-0.2,0.5-0.3,0.6c-0.1,0.2-0.4,0.2-0.7,0.3c-0.2,0-0.4,0-0.6,0
		c-0.4-0.1-0.9-0.1-1.4-0.2c-0.2,0-0.3-0.1-0.3-0.3c0-0.2,0.2-0.3,0.5-0.3c0.5,0,1.1-0.1,2.1-0.2c0.3-0.1,0.6-0.3,0.7-0.6
		c0.1-0.2,0.1-0.3,0.1-0.6c0-0.4-0.2-1.1-0.6-2.2c-0.4-1-0.6-1.7-0.6-2c0.1-0.8,0.8-1.4,2.3-1.7c0.1,0,0.2,0,0.2,0.2
		c0,0.1-0.1,0.1-0.2,0.2c-0.7,0.3-1.1,0.7-1.1,1.1c0,0.2,0,0.4,0.1,0.7s0.3,0.9,0.6,1.9C121.5,20.9,121.6,21.4,121.6,21.8z
		 M123.2,16.2c0,0.3-0.1,0.8-0.2,1.4c-0.1,0.2-0.1,0.4-0.2,0.4c0,0-0.1,0.1-0.3,0.1c-0.2,0.1-0.4,0.1-0.4,0.1
		c-0.1,0-0.1-0.1-0.1-0.2c0-0.1,0-0.2,0-0.3c0.2-0.6,0.2-1.1,0.2-1.3s0-0.4,0.2-0.5c0.3-0.2,0.5-0.2,0.6-0.2
		C123.1,15.8,123.2,15.9,123.2,16.2z"/>
	<path class="st1" d="M129,11.5c0.2,0.1,0.3,0.2,0.3,0.3c0,0.1-0.1,0.1-0.2,0.1c0,0-0.1,0-0.1,0s-0.1,0-0.1,0
		c-0.2,0-0.5,0.3-0.9,0.8c-0.3,0.5-0.7,1.5-1.3,3.1c-0.1,0.1-0.1,0.2-0.1,0.3c0,0,0.1,0.1,0.3,0.1c0.4,0,0.9,0,1.5,0
		c0.2,0,0.3,0.1,0.3,0.3c0,0.1-0.1,0.2-0.3,0.3c-0.1,0-0.9,0.1-2.2,0.2c-0.8,2.3-1.3,4.2-1.4,5.8c0,0.1,0,0.2,0,0.2
		c0,0.2,0.1,0.3,0.2,0.3c0.2,0,0.7-0.4,1.6-1.3c0.1-0.1,0.2-0.2,0.3-0.2c0.1,0,0.1,0,0.2,0.1c0,0.1,0,0.2-0.1,0.3
		c-0.5,0.7-1,1.3-1.6,1.8c-0.2,0.2-0.4,0.3-0.5,0.3s-0.4-0.1-0.7-0.3c-0.4-0.1-0.6-0.3-0.6-0.6c0,0,0-0.1,0-0.2
		c0.2-1.7,0.7-3.7,1.4-6.2c-0.3,0-0.7-0.1-0.9-0.1c-0.1,0-0.2-0.1-0.2-0.2c0-0.1,0.1-0.2,0.2-0.3s0.4-0.1,0.7-0.2
		c0.2-0.1,0.4-0.2,0.6-0.3c0.7-2.2,1.2-3.6,1.6-4.2c0.2-0.4,0.5-0.5,0.7-0.5C128.1,11.1,128.5,11.3,129,11.5z"/>
</g>
</svg>
