<?xml version="1.0" encoding="utf-8"?>
<!-- Generator: Adobe Illustrator 21.0.0, SVG Export Plug-In . SVG Version: 6.00 Build 0)  -->
<svg version="1.1" id="Layer_1" xmlns="http://www.w3.org/2000/svg" xmlns:xlink="http://www.w3.org/1999/xlink" x="0px" y="0px"
	 viewBox="0 0 149 36" style="enable-background:new 0 0 149 36;" xml:space="preserve">
<style type="text/css">
	.st0{fill:#CECECE;}
	.st1{fill:#FFFFFF;}
	.st2{fill:#E6E6F9;}
	.st3{fill:#ECF2F3;}
	.st4{fill:#93959C;}
</style>
<g>
	<path class="st0" d="M15.6,20.4H8.3c0.2,1.1,0.5,2.1,1,3h6.4c0.8,0,1.5-0.7,1.5-1.5S16.4,20.4,15.6,20.4z"/>
	<path class="st0" d="M30.2,11.3h-7c-0.8,0-1.5,0.7-1.5,1.5s0.7,1.5,1.5,1.5h8.5C31.3,13.3,30.8,12.3,30.2,11.3z"/>
	<path class="st0" d="M31.7,21.9h-5.5c-0.8,0-1.5,0.7-1.5,1.5s0.7,1.5,1.5,1.5h4C30.8,24,31.3,23,31.7,21.9z"/>
	<circle class="st1" cx="32.3" cy="31.8" r="3"/>
	<circle class="st2" cx="37.3" cy="22.7" r="1.5"/>
	<g>
		<circle class="st0" cx="17.1" cy="9.8" r="0.8"/>
		<circle class="st0" cx="25.5" cy="16.8" r="0.8"/>
		<circle class="st0" cx="20.9" cy="26.5" r="1.5"/>
		<circle class="st0" cx="14.9" cy="12.1" r="1.5"/>
	</g>
	<circle class="st1" cx="8" cy="4.5" r="3"/>
	<circle class="st3" cx="3" cy="15.1" r="1.5"/>
	<g>
		<path class="st4" d="M33,18.2c0-1-0.1-1.9-0.3-2.8c2.5-2.5,3.3-4.5,2.5-5.9c-0.8-1.4-2.9-1.6-6.4-0.8c-2.3-2.1-5.3-3.4-8.7-3.4
			c-7.1,0-12.9,5.8-12.9,12.9c0,1,0.1,1.9,0.3,2.8c-2.5,2.5-3.3,4.5-2.5,5.9c0.5,0.8,1.5,1.3,3,1.3c0.9,0,2.1-0.2,3.4-0.5
			c2.3,2.1,5.3,3.4,8.7,3.4C27.2,31,33,25.3,33,18.2z M27.9,26.5h-3.9c-0.4,0-0.8,0.3-0.8,0.8s0.3,0.8,0.8,0.8h1.9
			c-1.7,1-3.6,1.5-5.7,1.5c-2.6,0-5-0.9-6.9-2.4c2.9-0.9,6.3-2.5,9.6-4.4c1.3-0.7,2.5-1.5,3.7-2.3h4.8
			C30.8,22.8,29.6,24.9,27.9,26.5z M31.5,18.2c0,0.3,0,0.5,0,0.8h-2.9c1-0.8,1.9-1.5,2.8-2.3C31.5,17.1,31.5,17.6,31.5,18.2z
			 M32.6,9.7c0.7,0,1.2,0.2,1.3,0.5c0.2,0.3,0.1,0.8-0.3,1.5c-0.3,0.6-0.8,1.3-1.4,2c-0.5-1.4-1.2-2.6-2.2-3.7
			C31,9.8,31.9,9.7,32.6,9.7L32.6,9.7z M20.2,6.8c2.1,0,4,0.6,5.7,1.5h-5.7c-0.4,0-0.8,0.3-0.8,0.8s0.3,0.8,0.8,0.8h7.6
			c0,0,0.1,0,0.1,0c1.5,1.4,2.6,3.1,3.2,5.1c-1.4,1.3-3.1,2.7-5,4h-4.4c-0.4,0-0.8,0.3-0.8,0.8s0.3,0.8,0.8,0.8h2.1
			c-0.5,0.3-1.1,0.7-1.7,1c-3.6,2.1-7.2,3.7-10.1,4.5c-1.8-1.9-2.9-4.3-3.1-7h5.3c0.4,0,0.8-0.3,0.8-0.8s-0.3-0.8-0.8-0.8H8.8
			c0-0.5,0.1-1,0.2-1.5h8.1c0.4,0,0.8-0.3,0.8-0.8c0-0.4-0.3-0.8-0.8-0.8H9.4C11,10,15.2,6.8,20.2,6.8L20.2,6.8z M7.8,26.6
			c-0.7,0-1.2-0.2-1.4-0.5c-0.2-0.3-0.1-0.8,0.3-1.5c0.3-0.6,0.8-1.3,1.4-2c0.5,1.4,1.2,2.6,2.2,3.7C9.3,26.6,8.4,26.6,7.8,26.6
			L7.8,26.6z"/>
		<path class="st4" d="M35.3,31C34,31,33,30,33,28.8c0-0.4-0.3-0.8-0.8-0.8c-0.4,0-0.8,0.3-0.8,0.8c0,1.3-1,2.3-2.3,2.3
			c-0.4,0-0.8,0.3-0.8,0.8c0,0.4,0.3,0.8,0.8,0.8c1.3,0,2.3,1,2.3,2.3c0,0.4,0.3,0.8,0.8,0.8c0.4,0,0.8-0.3,0.8-0.8
			c0-1.3,1-2.3,2.3-2.3c0.4,0,0.8-0.3,0.8-0.8C36,31.4,35.7,31,35.3,31z M32.3,32.5c-0.2-0.3-0.5-0.5-0.8-0.8
			c0.3-0.2,0.5-0.5,0.8-0.8c0.2,0.3,0.5,0.5,0.8,0.8C32.7,32,32.5,32.3,32.3,32.5z"/>
		<path class="st4" d="M37.3,20.4c-1.3,0-2.3,1-2.3,2.3s1,2.3,2.3,2.3s2.3-1,2.3-2.3S38.5,20.4,37.3,20.4z M37.3,23.5
			c-0.4,0-0.8-0.3-0.8-0.8s0.3-0.8,0.8-0.8s0.8,0.3,0.8,0.8S37.7,23.5,37.3,23.5z"/>
		<path class="st4" d="M5,5.3c1.3,0,2.3,1,2.3,2.3C7.3,8,7.6,8.3,8,8.3c0.4,0,0.8-0.3,0.8-0.8c0-1.3,1-2.3,2.3-2.3
			c0.4,0,0.8-0.3,0.8-0.8s-0.3-0.8-0.8-0.8c-1.3,0-2.3-1-2.3-2.3c0-0.4-0.3-0.8-0.8-0.8c-0.4,0-0.8,0.3-0.8,0.8c0,1.3-1,2.3-2.3,2.3
			c-0.4,0-0.8,0.3-0.8,0.8S4.6,5.3,5,5.3z M8,3.8c0.2,0.3,0.5,0.5,0.8,0.8C8.5,4.8,8.3,5,8,5.3C7.8,5,7.6,4.8,7.3,4.5
			C7.6,4.3,7.8,4.1,8,3.8z"/>
		<path class="st4" d="M3,12.9c-1.3,0-2.3,1-2.3,2.3s1,2.3,2.3,2.3s2.3-1,2.3-2.3S4.3,12.9,3,12.9z M3,15.9c-0.4,0-0.8-0.3-0.8-0.8
			s0.3-0.8,0.8-0.8s0.8,0.3,0.8,0.8S3.5,15.9,3,15.9z"/>
	</g>
</g>
<g>
	<path class="st4" d="M42.8,23.3l0.7-1.8c0.4,0.3,0.8,0.5,1.4,0.7s1,0.3,1.5,0.3c0.8,0,1.4-0.2,1.8-0.6s0.7-0.9,0.7-1.6
		c0-0.5-0.1-0.9-0.4-1.3s-0.9-0.9-1.9-1.4L45.4,17c-1-0.5-1.7-1-2-1.6s-0.6-1.4-0.6-2.3c0-1.1,0.4-2,1.1-2.7s1.7-1.1,2.9-1.1
		c1.6,0,2.7,0.3,3.3,0.8l-0.6,1.7c-0.3-0.2-0.7-0.4-1.2-0.5s-1-0.3-1.5-0.3c-0.7,0-1.2,0.2-1.6,0.6s-0.6,0.9-0.6,1.5
		c0,0.4,0.1,0.7,0.2,1s0.3,0.6,0.6,0.8s0.7,0.5,1.5,0.8l1.2,0.6c1,0.5,1.7,1,2.1,1.7c0.4,0.6,0.6,1.5,0.6,2.4c0,1.1-0.4,2-1.3,2.7
		s-2,1.1-3.5,1.1C44.8,24.2,43.7,23.9,42.8,23.3z"/>
	<path class="st4" d="M52.3,18.7c0-1.6,0.4-2.9,1.3-3.9s2-1.5,3.4-1.5c1.5,0,2.7,0.5,3.5,1.4s1.2,2.3,1.2,4c0,1.7-0.4,3-1.3,4
		s-2,1.5-3.5,1.5c-1.5,0-2.7-0.5-3.5-1.5S52.3,20.4,52.3,18.7z M54.2,18.7c0,2.6,0.9,3.9,2.8,3.9c0.9,0,1.5-0.4,2-1.1
		s0.7-1.7,0.7-2.9c0-2.6-0.9-3.9-2.8-3.9c-0.8,0-1.5,0.3-2,1S54.2,17.5,54.2,18.7z"/>
	<path class="st4" d="M63.8,21V9.3h1.9v11.5c0,0.6,0.2,1,0.5,1.3s0.7,0.5,1.3,0.5v1.7C65,24.2,63.8,23.1,63.8,21z"/>
	<path class="st4" d="M75.5,22.8c-0.7,0.9-1.9,1.4-3.4,1.4c-0.8,0-1.5-0.3-2.1-0.9S69,22,69,21.1c0-1.1,0.5-2,1.4-2.7
		s2.1-1.1,3.5-1.1c0.4,0,0.8,0.1,1.3,0.3c0-1.7-0.8-2.5-2.3-2.5c-1.2,0-2.1,0.3-2.7,0.9l-0.8-1.6c0.4-0.3,0.8-0.5,1.5-0.7
		s1.2-0.3,1.8-0.3c1.5,0,2.6,0.3,3.3,1s1,1.8,1,3.3v3.8c0,0.9,0.3,1.5,0.8,1.8v0.9c-0.8,0-1.3-0.1-1.7-0.3S75.6,23.3,75.5,22.8z
		 M75.3,18.9c-0.6-0.1-1-0.2-1.2-0.2c-0.9,0-1.7,0.2-2.3,0.7s-0.9,1.1-0.9,1.7c0,1.1,0.6,1.6,1.9,1.6c0.9,0,1.8-0.4,2.5-1.3V18.9z"
		/>
	<path class="st4" d="M85.8,15.3c-0.4-0.3-0.8-0.4-1.2-0.4c-0.7,0-1.2,0.3-1.7,0.9s-0.7,1.3-0.7,2.2v6h-1.9V13.5h1.9v1.7
		c0.7-1.2,1.7-1.9,3-1.9c0.3,0,0.8,0.1,1.4,0.2L85.8,15.3z"/>
	<path class="st4" d="M87.4,23.3l0.7-1.8c0.4,0.3,0.8,0.5,1.4,0.7s1,0.3,1.5,0.3c0.8,0,1.4-0.2,1.8-0.6s0.7-0.9,0.7-1.6
		c0-0.5-0.1-0.9-0.4-1.3s-0.9-0.9-1.9-1.4L89.9,17c-1-0.5-1.7-1-2-1.6s-0.6-1.4-0.6-2.3c0-1.1,0.4-2,1.1-2.7s1.7-1.1,2.9-1.1
		c1.6,0,2.7,0.3,3.3,0.8l-0.6,1.7c-0.3-0.2-0.7-0.4-1.2-0.5s-1-0.3-1.5-0.3c-0.7,0-1.2,0.2-1.6,0.6s-0.6,0.9-0.6,1.5
		c0,0.4,0.1,0.7,0.2,1s0.3,0.6,0.6,0.8s0.7,0.5,1.5,0.8l1.2,0.6c1,0.5,1.7,1,2.1,1.7c0.4,0.6,0.6,1.5,0.6,2.4c0,1.1-0.4,2-1.3,2.7
		s-2,1.1-3.5,1.1C89.3,24.2,88.3,23.9,87.4,23.3z"/>
	<path class="st4" d="M101.5,25.8c-0.2,0.7-0.7,1.2-1.5,1.7s-1.6,0.7-2.6,0.7v-1.7c0.8,0,1.4-0.2,2-0.5s0.8-0.8,0.8-1.3
		c0-0.6-0.1-1.1-0.3-1.7s-0.5-1.2-0.8-2.1l-2.8-7.3h1.9l3.1,8.1l2.8-8.1h1.9L101.5,25.8z"/>
	<path class="st4" d="M106.6,23.4l0.7-1.8c1,0.7,1.9,1,2.5,1c1.1,0,1.7-0.5,1.7-1.4c0-0.7-0.6-1.3-1.7-1.8c-0.9-0.4-1.4-0.7-1.7-0.9
		s-0.6-0.4-0.8-0.7c-0.2-0.3-0.4-0.5-0.5-0.8s-0.2-0.6-0.2-0.9c0-0.9,0.3-1.5,0.9-2s1.4-0.7,2.5-0.7c0.8,0,1.7,0.2,2.9,0.7l-0.5,1.7
		c-0.7-0.6-1.5-0.9-2.2-0.9c-0.4,0-0.8,0.1-1.1,0.3s-0.5,0.5-0.5,0.8c0,0.7,0.4,1.2,1.1,1.5l1.3,0.6c0.8,0.4,1.4,0.8,1.8,1.3
		s0.6,1.1,0.6,1.8c0,0.9-0.3,1.7-1,2.2s-1.6,0.8-2.7,0.8C108.7,24.2,107.6,23.9,106.6,23.4z"/>
	<path class="st4" d="M116.1,15h-1.2v-1.5h1.2v-2.2l1.9-0.7v2.9h2.9V15h-2.9v5.2c0,0.9,0.1,1.5,0.4,1.9s0.8,0.6,1.4,0.6
		c0.5,0,1-0.1,1.5-0.4l0.3,1.6c-0.8,0.2-1.6,0.3-2.5,0.3c-0.8,0-1.5-0.3-2.1-0.9s-0.9-1.4-0.9-2.3V15z"/>
	<path class="st4" d="M132.2,19h-7.5c0,1.2,0.3,2.2,1,2.8c0.6,0.6,1.4,0.9,2.3,0.9c1.1,0,1.9-0.3,2.7-0.9l0.8,1.3
		c-0.3,0.3-0.7,0.5-1.3,0.7c-0.7,0.3-1.6,0.4-2.5,0.4c-1.3,0-2.4-0.4-3.3-1.3c-1-1-1.5-2.3-1.5-4c0-1.7,0.5-3.1,1.6-4.2
		c0.9-0.9,2-1.4,3.3-1.4c1.5,0,2.7,0.4,3.5,1.3c0.8,0.8,1.2,1.9,1.2,3.2C132.3,18.2,132.3,18.6,132.2,19z M127.7,14.9
		c-0.8,0-1.5,0.3-2.1,0.8c-0.5,0.5-0.8,1.1-0.9,1.9h5.8c0-0.7-0.2-1.4-0.7-1.9C129.2,15.2,128.5,14.9,127.7,14.9z"/>
	<path class="st4" d="M146.4,24v-6.6c0-1.6-0.7-2.5-2.1-2.5c-0.4,0-0.9,0.1-1.3,0.4s-0.7,0.6-0.8,0.9V24h-1.9v-7.4
		c0-0.5-0.2-0.9-0.6-1.2s-0.9-0.4-1.5-0.4c-0.4,0-0.8,0.1-1.2,0.4s-0.7,0.6-0.9,0.9V24h-1.9V13.5h1.2l0.6,1.2
		c0.7-0.9,1.6-1.4,2.7-1.4c1.5,0,2.5,0.5,3.1,1.4c0.2-0.4,0.6-0.7,1.2-1s1.1-0.4,1.7-0.4c1.1,0,1.9,0.3,2.5,1s0.9,1.5,0.9,2.7v7
		H146.4z"/>
</g>
</svg>
