<?xml version="1.0" encoding="utf-8"?>
<!-- Generator: Adobe Illustrator 21.0.0, SVG Export Plug-In . SVG Version: 6.00 Build 0)  -->
<svg version="1.1" id="_x31_" xmlns="http://www.w3.org/2000/svg" xmlns:xlink="http://www.w3.org/1999/xlink" x="0px" y="0px"
	 viewBox="0 0 512 512" style="enable-background:new 0 0 512 512;" xml:space="preserve">
<style type="text/css">
	.st0{fill:#E96060;}
</style>
<path class="st0" d="M74.7,448c-5.9,0-10.7-4.8-10.7-10.7V330.7c0-5.9,4.8-10.7,10.7-10.7h32c23.5,0,42.7,19.1,42.7,42.7
	s-19.1,42.7-42.7,42.7H85.3v32C85.3,443.2,80.6,448,74.7,448z M85.3,384h21.3c11.8,0,21.3-9.6,21.3-21.3s-9.6-21.3-21.3-21.3H85.3
	V384z"/>
<path class="st0" d="M181.3,448c-5.9,0-10.7-4.8-10.7-10.7V330.7c0-5.9,4.8-10.7,10.7-10.7h32c23.5,0,42.7,19.1,42.7,42.7
	s-19.1,42.7-42.7,42.7H192v32C192,443.2,187.2,448,181.3,448z M192,384h21.3c11.8,0,21.3-9.6,21.3-21.3s-9.6-21.3-21.3-21.3H192V384
	z"/>
<path class="st0" d="M320,448c-5.9,0-10.7-4.8-10.7-10.7V330.7c0-5.9,4.8-10.7,10.7-10.7s10.7,4.8,10.7,10.7v106.7
	C330.7,443.2,325.9,448,320,448z"/>
<path class="st0" d="M352,341.3h-64c-5.9,0-10.7-4.8-10.7-10.7S282.1,320,288,320h64c5.9,0,10.7,4.8,10.7,10.7
	S357.9,341.3,352,341.3z"/>
<path class="st0" d="M373.3,512h-320C23.9,512,0,488.1,0,458.7V53.3C0,23.9,23.9,0,53.3,0h192c5.9,0,10.7,4.8,10.7,10.7
	s-4.8,10.7-10.7,10.7h-192c-17.6,0-32,14.4-32,32v405.3c0,17.6,14.4,32,32,32h320c17.6,0,32-14.4,32-32V245.3
	c0-5.9,4.8-10.7,10.7-10.7c5.9,0,10.7,4.8,10.7,10.7v213.3C426.7,488.1,402.7,512,373.3,512z"/>
<path class="st0" d="M440.1,192H295.4c-33.5,0-60.7-27.8-60.7-61.9c0-31.3,23-57.3,52.7-61.3c9.5-39.8,45-68.8,86-68.8
	c32.2,0,62,18,77.4,46.4c34.8,5.1,61.3,35.8,61.3,72.3C512,159.1,479.7,192,440.1,192L440.1,192z M373.3,21.3
	c-33.2,0-61.8,25.4-66.5,59.1c-0.7,5.3-5.2,9.2-10.6,9.2c-22.6,0-40.3,18.2-40.3,40.5s17.7,40.5,39.4,40.5h144.7
	c27.9,0,50.5-23.3,50.5-51.9c0-27.5-20.9-50.2-47.5-51.7c-4-0.2-7.5-2.6-9.1-6.2C423.1,36.8,399.3,21.3,373.3,21.3z"/>
</svg>
