<?xml version="1.0" encoding="utf-8"?>
<!-- Generator: Adobe Illustrator 21.0.0, SVG Export Plug-In . SVG Version: 6.00 Build 0)  -->
<svg version="1.1" id="Capa_1" xmlns="http://www.w3.org/2000/svg" xmlns:xlink="http://www.w3.org/1999/xlink" x="0px" y="0px"
	 viewBox="0 0 512 512" style="enable-background:new 0 0 512 512;" xml:space="preserve">
<style type="text/css">
	.st0{fill:#E96060;}
</style>
<circle class="st0" cx="256" cy="335.3" r="7.5"/>
<circle class="st0" cx="408.3" cy="233.7" r="7.5"/>
<circle class="st0" cx="441" cy="233.7" r="7.5"/>
<ellipse transform="matrix(0.9871 -0.16 0.16 0.9871 -31.2999 78.7825)" class="st0" cx="473.5" cy="233.7" rx="7.5" ry="7.5"/>
<circle class="st0" cx="408.3" cy="262.7" r="7.5"/>
<circle class="st0" cx="441" cy="262.7" r="7.5"/>
<ellipse transform="matrix(0.9871 -0.16 0.16 0.9871 -35.94 79.1554)" class="st0" cx="473.5" cy="262.7" rx="7.5" ry="7.5"/>
<path class="st0" d="M478.5,28.4H135c-4.1,0-7.5,3.4-7.5,7.5s3.4,7.5,7.5,7.5h343.4c10.2,0,18.5,8.3,18.5,18.5v7H15v-7
	c0-10.2,8.3-18.5,18.5-18.5H105c4.1,0,7.5-3.4,7.5-7.5s-3.4-7.5-7.5-7.5H33.5C15,28.4,0,43.4,0,61.9v286.6
	c0,18.5,15.1,33.5,33.5,33.5h158.8v53.5h-12.6c-17.7,0-32.1,14.4-32.1,32.1v8.5c0,4.1,3.4,7.5,7.5,7.5h201.6c4.1,0,7.5-3.4,7.5-7.5
	v-8.5c0-17.7-14.4-32.1-32.1-32.1h-12.6v-53.5h15c4.1,0,7.5-3.4,7.5-7.5s-3.4-7.5-7.5-7.5h-301c-10.2,0-18.5-8.3-18.5-18.5v-45.1
	h482v45.1c0,10.2-8.3,18.5-18.5,18.5H364.6c-4.1,0-7.5,3.4-7.5,7.5s3.4,7.5,7.5,7.5h113.9c18.5,0,33.5-15,33.5-33.5V61.9
	C512,43.4,497,28.4,478.5,28.4z M332.2,450.5c9.4,0,17.1,7.6,17.1,17.1v1H162.7v-1c0-9.4,7.6-17.1,17.1-17.1H332.2z M207.4,382.1
	h97.2v53.5h-97.2V382.1z M497,132.4l-39.7-29.2c-3-2.2-7.1-1.9-9.7,0.7c-18.1,17.6-45.9,44.5-56.8,54.7c-6.5-6.4-19-19-30.3-30.5
	c-1.5-1.5-3.5-2.3-5.7-2.2c-2.1,0.1-4.1,1.1-5.5,2.7c-3.9,4.8-28.8,34.9-44.8,54.4v-99H497V132.4z M497,196.5H312.9
	c10.7-13.1,28.3-34.3,42.8-51.9c30.4,30.9,30.8,31,33.8,31.5c3.8,0.6,5.8-1.3,9.2-4.4c1.7-1.6,4.2-3.9,7.3-6.8
	c5.2-4.9,12.4-11.8,21.4-20.5c10.2-9.9,20.5-19.8,26.2-25.4l43.4,32V196.5z M259.9,83.9h29.7v112.5h-29.7V83.9z M244.9,83.9v112.5
	H15V83.9L244.9,83.9z M15,288.5v-77h482v77H15z"/>
<path class="st0" d="M191,226.2H79.7c-4.1,0-7.5,3.4-7.5,7.5s3.4,7.5,7.5,7.5H191c4.1,0,7.5-3.4,7.5-7.5S195.2,226.2,191,226.2z"/>
<path class="st0" d="M191,255.2H79.7c-4.1,0-7.5,3.4-7.5,7.5s3.4,7.5,7.5,7.5H191c4.1,0,7.5-3.4,7.5-7.5S195.2,255.2,191,255.2
	L191,255.2z"/>
<path class="st0" d="M322.2,226.2h-97.1c-4.1,0-7.5,3.4-7.5,7.5s3.4,7.5,7.5,7.5h97.1c4.1,0,7.5-3.4,7.5-7.5
	S326.4,226.2,322.2,226.2z"/>
<path class="st0" d="M322.2,255.2h-97.1c-4.1,0-7.5,3.4-7.5,7.5s3.4,7.5,7.5,7.5h97.1c4.1,0,7.5-3.4,7.5-7.5
	S326.4,255.2,322.2,255.2L322.2,255.2z"/>
<path class="st0" d="M101.2,182.7c1.2,0.7,2.5,1,3.8,1s2.6-0.3,3.8-1l62.4-36c2.3-1.3,3.8-3.8,3.8-6.5s-1.4-5.2-3.8-6.5l-62.4-36
	c-2.3-1.3-5.2-1.3-7.5,0s-3.8,3.8-3.8,6.5v72C97.5,178.9,98.9,181.4,101.2,182.7z M112.5,117.2l39.9,23l-39.9,23L112.5,117.2z"/>
</svg>
