<?xml version="1.0" encoding="utf-8"?>
<!-- Generator: Adobe Illustrator 21.0.0, SVG Export Plug-In . SVG Version: 6.00 Build 0)  -->
<svg version="1.1" id="Layer_1" xmlns="http://www.w3.org/2000/svg" xmlns:xlink="http://www.w3.org/1999/xlink" x="0px" y="0px"
	 viewBox="0 0 512 512" style="enable-background:new 0 0 512 512;" xml:space="preserve">
<style type="text/css">
	.st0{fill:#E96060;}
</style>
<g id="coding">
	<path class="st0" d="M472,112h-88V24c0-4.4-3.6-8-8-8H136c-4.4,0-8,3.6-8,8v88H40c-13.2,0-24,10.8-24,24v256c0,13.2,10.8,24,24,24
		h158.6l-5.4,32H184c-2.5,0-4.9,1.2-6.4,3.2l-24,32c-2.7,3.5-1.9,8.5,1.6,11.2c1.4,1,3.1,1.6,4.8,1.6h192c4.4,0,8-3.6,8-8
		c0-1.7-0.6-3.4-1.6-4.8l-24-32c-1.5-2-3.9-3.2-6.4-3.2h-9.2l-5.4-32H472c13.2,0,24-10.8,24-24V136C496,122.8,485.2,112,472,112z
		 M144,32h224v160H144V32z M324,464l12,16H176l12-16H324z M209.4,448l5.4-32h82.4l5.4,32H209.4z M480,392c0,4.4-3.6,8-8,8H40
		c-4.4,0-8-3.6-8-8v-24h448V392z M480,352H32V136c0-4.4,3.6-8,8-8h88v72c0,4.4,3.6,8,8,8h240c4.4,0,8-3.6,8-8v-72h88
		c4.4,0,8,3.6,8,8V352z"/>
	<path class="st0" d="M456,224h-96c-4.4,0-8,3.6-8,8v8h-64v-8c0-4.4-3.6-8-8-8h-48c-4.4,0-8,3.6-8,8v8h-64v-8c0-4.4-3.6-8-8-8H56
		c-4.4,0-8,3.6-8,8v32c0,4.4,3.6,8,8,8h96c4.4,0,8-3.6,8-8v-8h64v8c0,4.4,3.6,8,8,8h16v16h-16c-4.4,0-8,3.6-8,8v32c0,4.4,3.6,8,8,8
		h48c4.4,0,8-3.6,8-8v-32c0-4.4-3.6-8-8-8h-16v-16h16c4.4,0,8-3.6,8-8v-8h64v8c0,4.4,3.6,8,8,8h96c4.4,0,8-3.6,8-8v-32
		C464,227.6,460.4,224,456,224z M144,256H64v-16h80V256z M272,304v16h-32v-16H272z M272,256h-32v-16h32V256z M448,256h-80v-16h80
		V256z"/>
	<path class="st0" d="M210.3,58.3l-48,48c-3.1,3.1-3.1,8.2,0,11.3l48,48l11.3-11.3L179.3,112l42.3-42.3L210.3,58.3z"/>
	<path class="st0" d="M301.7,58.3l-11.3,11.3l42.3,42.3l-42.3,42.3l11.3,11.3l48-48c3.1-3.1,3.1-8.2,0-11.3L301.7,58.3z"/>
	
		<rect x="180.1" y="104" transform="matrix(0.3165 -0.9486 0.9486 0.3165 68.7288 319.3805)" class="st0" width="151.8" height="16"/>
</g>
</svg>
